<svg width="27.000000" height="27.000000" viewBox="0 0 27 27" fill="none" xmlns="http://www.w3.org/2000/svg" xmlns:xlink="http://www.w3.org/1999/xlink">
	<desc>
			Created with Pixso.
	</desc>
	<defs/>
	<path id="Vector" d="M8.75 26.12L6.37 22.12L1.87 21.12L2.31 16.5L-0.75 13L2.31 9.5L1.87 4.87L6.37 3.87L8.75 -0.13L13 1.68L17.25 -0.13L19.62 3.87L24.12 4.87L23.68 9.5L26.75 13L23.68 16.5L24.12 21.12L19.62 22.12L17.25 26.12L13 24.31L8.75 26.12ZM9.81 22.93L13 21.56L16.25 22.93L18 19.93L21.43 19.12L21.12 15.62L23.43 13L21.12 10.31L21.43 6.81L18 6.06L16.18 3.06L13 4.43L9.75 3.06L8 6.06L4.56 6.81L4.87 10.31L2.56 13L4.87 15.62L4.56 19.18L8 19.93L9.81 22.93ZM11.68 17.43L18.75 10.37L17 8.56L11.68 13.87L9 11.25L7.25 13L11.68 17.43Z" fill="#FFFFFF" fill-opacity="1.000000" fill-rule="nonzero"/>
</svg>
